# xmcd
#
# Track frame offsets:
#	150
#	12333
#	23719
#	36282
#	48888
#	61688
#	74615
#	86524
#	100837
#	113436
#	127044
#	140238
#	152514
#	165475
#	179273
#	192163
#	204522
#	218650
#	232270
#	244965
#	257935
#	270525
#	283896
#	295280
#
# Disc length: 4095 seconds
#
# Revision: 0
# Processed by: cddbd v1.4PL0 Copyright (c) Steve Scherf et al.
# Submitted via: dBpowerAMP V4.0
#
DISCID=630ffd18
DTITLE=Various Artist - Female Chicago Blues (1936-1947)
DYEAR=1900
DGENRE=
TTITLE0=Froggy Bottom - The Yas Yas Girl (Merline Johnson), 1941
TTITLE1=Blues Before Daybreak - The Yas Yas Girl (Merline Johnson), 1941
TTITLE2=Two By Four Blues - The Yas Yas Girl (Merline Johnson), 1941
TTITLE3=Fighting Man Blues - The Yas Yas Girl (Merline Johnson), 1941
TTITLE4=Good Old Easy Street - The Yas Yas Girl (Merline Johnson), 1941
TTITLE5=How Can I Go On - The Yas Yas Girl (Merline Johnson), 1941
TTITLE6=Bad Whiskey Blues - The Yas Yas Girl (Merline Johnson), 1947
TTITLE7=Romeo and Juliet - Billie (Willie Mae) McKenzie, 1936
TTITLE8=That Man on the W.P.A. - Billie (Willie Mae) McKenzie, 1936
TTITLE9=I'd Rather Drink Muddy Water - Billie (Willie Mae) McKenzie, 1936
TTITLE10=Get Business on your Mind - Billie (Willie Mae) McKenzie, 1936
TTITLE11=Little Red Wagon - Billie (Willie Mae) McKenzie, 1937
TTITLE12=Oh, Babe! - Billie (Willie Mae) McKenzie, 1937
TTITLE13=I'm Getting Even with You - Billie (Willie Mae) McKenzie, 1937
TTITLE14=If You Can Dish It No. 2 (I Can Take It) - Billie (Willie Mae) McKenzie, 1937
TTITLE15=Woke Up with the Rising Sun - Billie (Willie Mae) McKenzie, 1937
TTITLE16=Papa Don't Hold Out on Me - Billie (Willie Mae) McKenzie, 1937
TTITLE17=Cry On, Daddy - Clara Morris, 1941
TTITLE18=I Stagger in my Sleep - Clara Morris, 1941
TTITLE19=I'm Blue Daddy - Clara Morris, 1941
TTITLE20=Poker Playing Daddy - Clara Morris, 1941
TTITLE21=Take it Easy Greasy - Trixie Butler, 1936
TTITLE22=You Got the Right Key - Trixie Butler, 1936
TTITLE23=Just a Good Woman Through With the Blues - Trixie Butler, 1936
EXTD=
EXTT0=
EXTT1=
EXTT2=
EXTT3=
EXTT4=
EXTT5=
EXTT6=
EXTT7=
EXTT8=
EXTT9=
EXTT10=
EXTT11=
EXTT12=
EXTT13=
EXTT14=
EXTT15=
EXTT16=
EXTT17=
EXTT18=
EXTT19=
EXTT20=
EXTT21=
EXTT22=
EXTT23=
PLAYORDER=
